<?xml version="1.0" standalone="no"?>
<svg xmlns:xlink="http://www.w3.org/1999/xlink" id="wave" style="transform:rotate(180deg); transition: 0.3s" viewBox="150 0 1000 490" version="1.1" xmlns="http://www.w3.org/2000/svg"><defs><linearGradient id="sw-gradient-0" x1="0" x2="0" y1="1" y2="0"><stop stop-color="rgba(243, 106, 62, 1)" offset="0%"/><stop stop-color="rgba(255, 179, 11, 1)" offset="100%"/></linearGradient></defs><path style="transform:translate(0, 0px); opacity:1;" fill="url(#sw-gradient-0)" d="M0,441L40,424.7C80,408,160,376,240,334.8C320,294,400,245,480,228.7C560,212,640,229,720,204.2C800,180,880,114,960,81.7C1040,49,1120,49,1200,73.5C1280,98,1360,147,1440,171.5C1520,196,1600,196,1680,163.3C1760,131,1840,65,1920,98C2000,131,2080,261,2160,269.5C2240,278,2320,163,2400,98C2480,33,2560,16,2640,32.7C2720,49,2800,98,2880,130.7C2960,163,3040,180,3120,228.7C3200,278,3280,359,3360,367.5C3440,376,3520,310,3600,261.3C3680,212,3760,180,3840,138.8C3920,98,4000,49,4080,89.8C4160,131,4240,261,4320,294C4400,327,4480,261,4560,228.7C4640,196,4720,196,4800,196C4880,196,4960,196,5040,220.5C5120,245,5200,294,5280,269.5C5360,245,5440,147,5520,89.8C5600,33,5680,16,5720,8.2L5760,0L5760,490L5720,490C5680,490,5600,490,5520,490C5440,490,5360,490,5280,490C5200,490,5120,490,5040,490C4960,490,4880,490,4800,490C4720,490,4640,490,4560,490C4480,490,4400,490,4320,490C4240,490,4160,490,4080,490C4000,490,3920,490,3840,490C3760,490,3680,490,3600,490C3520,490,3440,490,3360,490C3280,490,3200,490,3120,490C3040,490,2960,490,2880,490C2800,490,2720,490,2640,490C2560,490,2480,490,2400,490C2320,490,2240,490,2160,490C2080,490,2000,490,1920,490C1840,490,1760,490,1680,490C1600,490,1520,490,1440,490C1360,490,1280,490,1200,490C1120,490,1040,490,960,490C880,490,800,490,720,490C640,490,560,490,480,490C400,490,320,490,240,490C160,490,80,490,40,490L0,490Z"/></svg>